<mxfile host="app.diagrams.net" modified="2024-05-24T07:59:11.182Z" agent="Mozilla/5.0 (Windows NT 10.0; Win64; x64) AppleWebKit/537.36 (KHTML, like Gecko) Chrome/125.0.0.0 Safari/537.36" version="24.4.7" etag="DySRW_uasi9wYA_L8wdr" type="github">
  <diagram name="Page-1" id="W_XF1uq0aSnlUcI4NHIS">
    <mxGraphModel>
      <root>
        <mxCell id="0" />
        <mxCell id="1" parent="0" />
      </root>
    </mxGraphModel>
  </diagram>
</mxfile>
